<svg width="87" height="74" viewBox="0 0 87 74" fill="none" xmlns="http://www.w3.org/2000/svg">
<path d="M56.6563 8.60547H39.4321V12.5723H56.6563V8.60547Z" fill="#1E5B4A"/>
<path d="M50.7486 14.3364H39.4321V18.3033H50.7486V14.3364Z" fill="#1E5B4A"/>
<path d="M45.9482 20.0679H39.4321V24.0347H45.9482V20.0679Z" fill="#1E5B4A"/>
<g opacity="0.2">
<path d="M56.6563 8.60547H39.4321V12.5723H56.6563V8.60547Z" fill="#1E5B4A"/>
<path d="M50.7486 14.3369H39.4321V18.3038H50.7486V14.3369Z" fill="#1E5B4A"/>
<path d="M45.9482 20.0679H39.4321V24.0347H45.9482V20.0679Z" fill="#1E5B4A"/>
</g>
<path d="M9.52246 52.5329V64.4761H15.3632V52.5329H9.52246Z" fill="#1E5B4A"/>
<path d="M17.9609 56.6336V64.4761H23.8017V56.6336H17.9609Z" fill="#1E5B4A"/>
<path d="M26.3936 59.9553V64.4697H32.2343V59.9553H26.3936Z" fill="#1E5B4A"/>
<g opacity="0.2">
<path d="M9.52246 52.5329V64.4761H15.3632V52.5329H9.52246Z" fill="#1E5B4A"/>
<path d="M17.9609 56.6336V64.4761H23.8017V56.6336H17.9609Z" fill="#1E5B4A"/>
<path d="M26.3936 59.9553V64.4697H32.2343V59.9553H26.3936Z" fill="#1E5B4A"/>
</g>
<path d="M8.21432 73.1883H78.9423C79.8686 73.1899 80.786 73.0089 81.6422 72.6555C82.4984 72.3022 83.2766 71.7835 83.9321 71.1291C84.5876 70.4747 85.1076 69.6975 85.4625 68.8419C85.8173 67.9863 85.9999 67.0692 85.9999 66.1429V7.85696C85.9999 6.93071 85.8173 6.01356 85.4625 5.15797C85.1076 4.30239 84.5876 3.52517 83.9321 2.87078C83.2766 2.21639 82.4984 1.69769 81.6422 1.34434C80.786 0.990987 79.8686 0.809934 78.9423 0.811534H8.21432C7.28831 0.810735 6.37121 0.992337 5.51537 1.34597C4.65954 1.6996 3.88174 2.21834 3.22638 2.87257C2.57102 3.5268 2.05094 4.3037 1.69583 5.15893C1.34072 6.01415 1.15754 6.93094 1.15674 7.85696V66.1429C1.15754 67.0689 1.34072 67.9857 1.69583 68.8409C2.05094 69.6962 2.57102 70.4731 3.22638 71.1273C3.88174 71.7815 4.65954 72.3003 5.51537 72.6539C6.37121 73.0075 7.28831 73.1891 8.21432 73.1883Z" stroke="#1E5B4A" stroke-width="1.0631" stroke-miterlimit="10"/>
<path d="M52.811 53.1777H78.0298" stroke="#1E5B4A" stroke-width="1.0631" stroke-miterlimit="10"/>
<path d="M52.811 55.873H78.0298" stroke="#1E5B4A" stroke-width="1.0631" stroke-miterlimit="10"/>
<path d="M52.811 58.5684H78.0298" stroke="#1E5B4A" stroke-width="1.0631" stroke-miterlimit="10"/>
<path d="M52.811 61.2695H78.0298" stroke="#1E5B4A" stroke-width="1.0631" stroke-miterlimit="10"/>
<path d="M52.811 63.9648H78.0298" stroke="#1E5B4A" stroke-width="1.0631" stroke-miterlimit="10"/>
<path d="M8.74951 9.19531H33.9682" stroke="#1E5B4A" stroke-width="1.0631" stroke-miterlimit="10"/>
<path d="M8.74951 11.8906H33.9682" stroke="#1E5B4A" stroke-width="1.0631" stroke-miterlimit="10"/>
<path d="M8.74951 14.5859H33.9682" stroke="#1E5B4A" stroke-width="1.0631" stroke-miterlimit="10"/>
<path d="M8.74951 17.2812H33.9682" stroke="#1E5B4A" stroke-width="1.0631" stroke-miterlimit="10"/>
<path d="M8.74951 19.9824H33.9682" stroke="#1E5B4A" stroke-width="1.0631" stroke-miterlimit="10"/>
<path d="M74.8719 30.3923L79.6784 32.9173L79.1369 19.3618L67.6501 26.608L72.4565 29.1268L68.8426 36.008C68.2034 36.0105 67.583 36.2245 67.0782 36.6164L60.7141 33.6595C60.7141 32.8818 60.4052 32.1359 59.8552 31.5859C59.3053 31.0359 58.5594 30.727 57.7816 30.727C57.0039 30.727 56.2579 31.0359 55.708 31.5859C55.158 32.1359 54.8491 32.8818 54.8491 33.6595C54.8488 34.0798 54.9401 34.495 55.1168 34.8763L46.7754 43.9174C46.5098 43.8321 46.233 43.7869 45.9541 43.7835C45.8133 43.7884 45.6731 43.8026 45.5343 43.8261L33.5424 28.6705C33.7149 28.2883 33.8021 27.8731 33.798 27.4537C33.798 26.676 33.489 25.93 32.939 25.3801C32.3891 24.8301 31.6432 24.5212 30.8654 24.5212C30.0877 24.5212 29.3417 24.8301 28.7918 25.3801C28.2418 25.93 27.9329 26.676 27.9329 27.4537C27.9392 27.7557 27.9904 28.0551 28.085 28.342L14.3896 42.2868C14.0679 42.1691 13.7283 42.1074 13.3857 42.1043C12.8072 42.1055 12.242 42.2782 11.7615 42.6005C11.2811 42.9227 10.9069 43.3802 10.6864 43.9151C10.4658 44.4499 10.4087 45.0381 10.5223 45.6054C10.6359 46.1727 10.9151 46.6936 11.3246 47.1022C11.7341 47.5109 12.2556 47.789 12.8231 47.9014C13.3906 48.0139 13.9787 47.9556 14.5131 47.7339C15.0475 47.5122 15.5042 47.1371 15.8255 46.656C16.1468 46.1749 16.3183 45.6093 16.3183 45.0308C16.3171 44.7882 16.2843 44.5469 16.2209 44.3128L30.0319 30.2098C30.3018 30.2947 30.5826 30.3397 30.8654 30.3437C31.045 30.3433 31.2241 30.327 31.4008 30.295L43.3318 45.4201C43.116 45.8518 43.01 46.33 43.0233 46.8124C43.0366 47.2948 43.1687 47.7664 43.408 48.1855C43.6472 48.6046 43.9862 48.9581 44.3948 49.2148C44.8035 49.4715 45.2691 49.6234 45.7505 49.657C46.2319 49.6907 46.7142 49.6049 47.1545 49.4075C47.5948 49.2101 47.9796 48.9071 48.2748 48.5253C48.5699 48.1435 48.7663 47.6948 48.8465 47.2189C48.9267 46.7431 48.8883 46.2548 48.7345 45.7974L57.2888 36.5312C57.4516 36.5601 57.6163 36.5764 57.7816 36.5799C58.3628 36.5806 58.9309 36.4068 59.4122 36.081L65.9222 39.1231C65.9472 39.5744 66.0764 40.0139 66.2997 40.4069C66.523 40.8 66.8343 41.136 67.2092 41.3885C67.5842 41.6411 68.0125 41.8033 68.4607 41.8625C68.9089 41.9218 69.3646 41.8764 69.7923 41.7299C70.22 41.5835 70.6079 41.3399 70.9257 41.0184C71.2434 40.6968 71.4824 40.3061 71.6238 39.8767C71.7652 39.4473 71.8052 38.991 71.7407 38.5436C71.6761 38.0962 71.5088 37.6698 71.2519 37.2978L74.8719 30.3923Z" fill="#1E5B4A"/>
</svg>
