<svg width="48" height="48" viewBox="0 0 48 48" fill="none" xmlns="http://www.w3.org/2000/svg">
<path fill-rule="evenodd" clip-rule="evenodd" d="M24 7.5C23.1716 7.5 22.5 6.82843 22.5 6V4.5C22.5 3.67157 23.1716 3 24 3C24.8284 3 25.5 3.67157 25.5 4.5V6C25.5 6.82843 24.8284 7.5 24 7.5ZM32.2501 9.71071C31.5327 9.2965 31.2868 8.37911 31.7011 7.66167L32.4511 6.36264C32.8653 5.6452 33.7827 5.39938 34.5001 5.8136C35.2175 6.22781 35.4633 7.1452 35.0491 7.86264L34.2991 9.16167C33.8849 9.87911 32.9675 10.1249 32.2501 9.71071ZM24 34.5C29.799 34.5 34.5 29.799 34.5 24C34.5 18.201 29.799 13.5 24 13.5C18.201 13.5 13.5 18.201 13.5 24C13.5 29.799 18.201 34.5 24 34.5ZM24 37.5C31.4558 37.5 37.5 31.4558 37.5 24C37.5 16.5442 31.4558 10.5 24 10.5C16.5442 10.5 10.5 16.5442 10.5 24C10.5 31.4558 16.5442 37.5 24 37.5ZM40.5 24C40.5 23.1716 41.1716 22.5 42 22.5H43.5C44.3284 22.5 45 23.1716 45 24C45 24.8284 44.3284 25.5 43.5 25.5H42C41.1716 25.5 40.5 24.8284 40.5 24ZM42.1865 13.5C41.7723 12.7826 40.8549 12.5367 40.1375 12.951L38.8384 13.701C38.121 14.1152 37.8752 15.0326 38.2894 15.75C38.7036 16.4674 39.621 16.7133 40.3384 16.299L41.6375 15.549C42.3549 15.1348 42.6007 14.2174 42.1865 13.5ZM13.5 5.8136C12.7826 6.22781 12.5367 7.1452 12.951 7.86264L13.701 9.16167C14.1152 9.87911 15.0326 10.1249 15.75 9.71071C16.4674 9.2965 16.7133 8.37911 16.299 7.66167L15.549 6.36264C15.1348 5.6452 14.2174 5.39938 13.5 5.8136ZM9.71062 15.75C9.29641 16.4674 8.37902 16.7133 7.66158 16.299L6.36255 15.549C5.64511 15.1348 5.39929 14.2174 5.81351 13.5C6.22772 12.7826 7.14511 12.5367 7.86255 12.951L9.16158 13.701C9.87902 14.1152 10.1248 15.0326 9.71062 15.75ZM24 40.5C23.1716 40.5 22.5 41.1716 22.5 42V43.5C22.5 44.3284 23.1716 45 24 45C24.8284 45 25.5 44.3284 25.5 43.5V42C25.5 41.1716 24.8284 40.5 24 40.5ZM7.5 24C7.5 23.1716 6.82843 22.5 6 22.5H4.5C3.67157 22.5 3 23.1716 3 24C3 24.8284 3.67157 25.5 4.5 25.5H6C6.82843 25.5 7.5 24.8284 7.5 24ZM5.81343 34.5C5.39921 33.7826 5.64503 32.8652 6.36246 32.451L7.6615 31.701C8.37894 31.2867 9.29633 31.5326 9.71054 32.25C10.1248 32.9674 9.87894 33.8848 9.1615 34.299L7.86246 35.049C7.14503 35.4633 6.22764 35.2174 5.81343 34.5ZM15.7501 38.2896C15.0327 37.8753 14.1153 38.1212 13.7011 38.8386L12.9511 40.1376C12.5368 40.8551 12.7827 41.7724 13.5001 42.1867C14.2175 42.6009 15.1349 42.3551 15.5491 41.6376L16.2991 40.3386C16.7133 39.6212 16.4675 38.7038 15.7501 38.2896ZM34.5 42.1867C33.7826 42.6009 32.8652 42.3551 32.451 41.6376L31.701 40.3386C31.2867 39.6212 31.5326 38.7038 32.25 38.2896C32.9674 37.8753 33.8848 38.1212 34.299 38.8386L35.049 40.1376C35.4633 40.8551 35.2174 41.7724 34.5 42.1867ZM38.2895 32.25C37.8752 32.9674 38.1211 33.8848 38.8385 34.299L40.1375 35.049C40.855 35.4633 41.7724 35.2174 42.1866 34.5C42.6008 33.7826 42.355 32.8652 41.6375 32.451L40.3385 31.701C39.6211 31.2867 38.7037 31.5326 38.2895 32.25Z" fill="url(#paint0_linear_96_214)"/>
<defs>
<linearGradient id="paint0_linear_96_214" x1="24" y1="3" x2="24" y2="45" gradientUnits="userSpaceOnUse">
<stop stop-color="#EFC977"/>
<stop offset="1" stop-color="#E07256"/>
</linearGradient>
</defs>
</svg>
