<svg width="840" height="868" viewBox="0 0 840 868" fill="none" xmlns="http://www.w3.org/2000/svg">
<path d="M419.516 867.069C188.194 867.069 0 678.875 0 447.553C0 216.23 188.194 28.0361 419.516 28.0361C650.838 28.0361 839.032 216.23 839.032 447.553C839.032 678.875 650.838 867.069 419.516 867.069ZM419.516 32.2091C190.497 32.2091 4.17297 218.53 4.17297 447.552C4.17297 676.574 190.497 862.895 419.516 862.895C648.536 862.895 834.86 676.574 834.86 447.552C834.859 218.53 648.536 32.2091 419.516 32.2091Z" fill="#231F20"/>
<path d="M419.516 853.021C195.941 853.021 14.047 671.129 14.047 447.552C14.047 223.975 195.94 42.083 419.516 42.083C643.092 42.083 824.985 223.975 824.985 447.552C824.985 671.129 643.091 853.021 419.516 853.021ZM419.516 45.213C197.665 45.213 17.177 225.701 17.177 447.552C17.177 669.403 197.665 849.891 419.516 849.891C641.368 849.891 821.855 669.403 821.855 447.552C821.855 225.701 641.367 45.213 419.516 45.213Z" fill="#231F20"/>
<path d="M419.516 842.444C201.773 842.444 24.622 665.296 24.622 447.552C24.622 229.808 201.772 52.6602 419.516 52.6602C637.26 52.6602 814.41 229.808 814.41 447.552C814.409 665.296 637.259 842.444 419.516 842.444ZM419.516 55.7901C203.496 55.7901 27.752 231.534 27.752 447.552C27.752 663.57 203.497 839.314 419.516 839.314C635.535 839.314 811.28 663.569 811.28 447.552C811.28 231.534 635.535 55.7901 419.516 55.7901Z" fill="#231F20"/>
<path d="M419.64 416.752L438.585 62L422.668 416.901L476.294 65.7141L425.666 417.345L513.456 73.106L428.607 418.082L549.715 84.106L431.461 419.103L584.721 98.606L434.201 420.399L618.137 116.467L436.801 421.958L649.642 137.518L439.235 423.763L678.932 161.555L441.481 425.799L705.725 188.348L443.517 428.045L729.762 217.638L445.323 430.48L750.813 249.142L446.881 433.079L768.675 282.559L448.177 435.82L783.175 317.565L449.199 438.674L794.174 353.824L449.935 441.614L801.566 390.987L450.38 444.613L805.28 428.695L450.528 447.64L805.28 466.586L450.38 450.668L801.566 504.294L449.935 453.666L794.174 541.456L449.199 456.607L783.175 577.715L448.177 459.461L768.675 612.721L446.881 462.201L750.813 646.138L445.323 464.801L729.762 677.643L443.517 467.236L705.725 706.932L441.481 469.482L678.932 733.725L439.235 471.517L649.642 757.763L436.801 473.323L618.137 778.814L434.201 474.882L584.721 796.675L431.461 476.177L549.715 811.175L428.607 477.199L513.456 822.174L425.666 477.935L476.294 829.566L422.668 478.38L438.585 833.28L419.64 478.529L400.695 833.28L416.612 478.38L362.986 829.566L413.614 477.935L325.824 822.174L410.674 477.199L289.565 811.175L407.82 476.177L254.559 796.675L405.08 474.882L221.143 778.814L402.479 473.323L189.637 757.763L400.045 471.517L160.348 733.725L397.799 469.482L133.555 706.932L395.763 467.236L109.518 677.643L393.957 464.801L88.467 646.138L392.399 462.201L70.605 612.721L391.103 459.461L56.105 577.715L390.082 456.607L45.106 541.456L389.345 453.666L37.714 504.294L388.9 450.668L34 466.586L388.752 447.64L34 428.695L388.9 444.613L37.714 390.987L389.345 441.614L45.106 353.824L390.082 438.674L56.105 317.565L391.103 435.82L70.605 282.559L392.399 433.079L88.467 249.142L393.957 430.48L109.518 217.638L395.763 428.045L133.555 188.348L397.799 425.799L160.348 161.555L400.045 423.763L189.637 137.518L402.479 421.958L221.143 116.467L405.08 420.399L254.559 98.606L407.82 419.103L289.565 84.106L410.674 418.082L325.824 73.106L413.614 417.345L362.986 65.7141L416.612 416.901L400.695 62L419.64 416.752Z" fill="#231F20"/>
<path d="M582.021 619.401C672.932 528.49 672.932 381.094 582.021 290.183C491.11 199.273 343.715 199.273 252.804 290.183C161.893 381.094 161.893 528.49 252.804 619.401C343.715 710.312 491.11 710.311 582.021 619.401Z" fill="#F1F2F2"/>
<path d="M482.758 455.369C487.058 420.446 462.233 388.649 427.31 384.35C392.387 380.05 360.59 404.875 356.29 439.798C351.99 474.721 376.816 506.518 411.739 510.818C446.662 515.118 478.459 490.293 482.758 455.369Z" fill="black"/>
<path d="M419.516 513.351C383.234 513.351 353.717 483.834 353.717 447.553C353.717 411.271 383.234 381.754 419.516 381.754C455.798 381.754 485.315 411.271 485.315 447.553C485.314 483.834 455.798 513.351 419.516 513.351ZM419.516 385.927C385.537 385.927 357.89 413.571 357.89 447.553C357.89 481.534 385.536 509.178 419.516 509.178C453.496 509.178 481.142 481.534 481.142 447.553C481.141 413.571 453.495 385.927 419.516 385.927Z" fill="#231F20"/>
<path d="M427.86 477.922C444.622 473.28 454.448 455.927 449.805 439.165C445.163 422.402 427.81 412.576 411.048 417.219C394.285 421.862 384.459 439.214 389.102 455.977C393.744 472.74 411.097 482.565 427.86 477.922Z" fill="#231F20"/>
<path d="M433.747 467.343C444.699 459.449 447.178 444.171 439.284 433.219C431.39 422.267 416.112 419.788 405.16 427.682C394.208 435.576 391.729 450.854 399.623 461.806C407.517 472.758 422.795 475.237 433.747 467.343Z" fill="black"/>
<path d="M37.478 353.736C47.098 314.428 62.6 277.429 83.041 243.752L75.542 236.253C53.481 272.09 36.869 311.633 26.846 353.736H37.478Z" fill="#231F20"/>
<path d="M215.716 111.077C249.392 90.6358 286.392 75.1339 325.7 65.5139V54.8818C283.597 64.9038 244.054 81.5158 208.217 103.578L215.716 111.077Z" fill="#231F20"/>
<path d="M513.332 65.5139C552.64 75.1339 589.639 90.6358 623.316 111.077L630.816 103.578C594.979 81.5168 555.436 64.9038 513.333 54.8818L513.332 65.5139Z" fill="#231F20"/>
<path d="M83.04 651.352C62.599 617.676 47.097 580.676 37.477 541.368H26.845C36.867 583.471 53.479 623.014 75.54 658.851L83.04 651.352Z" fill="#231F20"/>
<path d="M755.992 243.752C776.433 277.429 791.935 314.428 801.555 353.736H812.187C802.165 311.632 785.553 272.09 763.491 236.253L755.992 243.752Z" fill="#231F20"/>
<path d="M801.554 541.368C791.934 580.676 776.433 617.676 755.991 651.352L763.49 658.851C785.552 623.014 802.164 583.471 812.186 541.368H801.554Z" fill="#231F20"/>
<path d="M623.316 784.027C589.64 804.468 552.64 819.97 513.332 829.59V840.223C555.435 830.201 594.978 813.589 630.815 791.527L623.316 784.027Z" fill="#231F20"/>
<path d="M325.7 829.59C286.392 819.97 249.393 804.468 215.716 784.027L208.217 791.526C244.054 813.588 283.597 830.2 325.7 840.222V829.59Z" fill="#231F20"/>
<path d="M492.097 265.904C489.726 406.177 453.439 519.311 411.047 518.594C368.655 517.878 336.211 403.583 338.582 263.31C340.953 123.036 377.24 9.90264 419.632 10.619C462.024 11.3357 494.468 125.631 492.097 265.904Z" fill="url(#paint0_radial_509_1751)"/>
<path d="M441.636 112.791C446.354 104.016 458.763 102.564 449.761 85.6456C438.884 65.2039 424.765 46.785 420.343 46.7101C415.921 46.6348 401.187 64.5665 389.627 84.6292C380.058 101.234 392.41 103.105 396.83 112.033L352.427 506.166L412.561 507.182L472.696 508.198L441.636 112.791Z" fill="url(#paint1_linear_509_1751)"/>
<path d="M419.395 616.523C518.274 616.523 598.43 536.366 598.43 437.488C598.43 338.61 518.274 258.453 419.395 258.453C320.517 258.453 240.36 338.61 240.36 437.488C240.36 536.366 320.517 616.523 419.395 616.523Z" fill="url(#paint2_radial_509_1751)"/>
<path d="M419.395 592.889C505.221 592.889 574.796 523.314 574.796 437.488C574.796 351.662 505.221 282.087 419.395 282.087C333.57 282.087 263.994 351.662 263.994 437.488C263.994 523.314 333.57 592.889 419.395 592.889Z" fill="url(#paint3_linear_509_1751)"/>
<path d="M479.471 308.677C550.611 341.855 581.385 426.423 548.206 497.563C515.027 568.703 430.46 599.478 359.319 566.298C288.178 533.118 257.405 448.552 290.584 377.412C323.763 306.271 408.331 275.498 479.471 308.677Z" fill="url(#paint4_linear_509_1751)"/>
<path d="M508.611 417.825L480.476 409.727V419.155L508.611 425.998V417.825Z" fill="url(#paint5_linear_509_1751)"/>
<path d="M463.18 406.724L428.47 397.144V529.212L463.18 518.948V406.724Z" fill="url(#paint6_linear_509_1751)"/>
<path d="M380.418 409.64L408.665 402.123V392.695L380.418 400.676V409.64Z" fill="url(#paint7_linear_509_1751)"/>
<path d="M319.592 425.826L343.01 419.595V411.245L319.592 417.862V425.826Z" fill="url(#paint8_linear_509_1751)"/>
<path d="M315.939 370.168V401.823L414.1 373.685L512.261 401.823V370.168L414.1 338.979L315.939 370.168Z" fill="#211F20"/>
<path d="M315.939 415.009V506.165L414.099 537.879L512.26 506.165V415.009L414.099 386.872L315.939 415.009ZM343.01 419.595L319.592 425.827V417.862L343.01 411.245V419.595ZM408.665 402.123L380.418 409.64V400.676L408.665 392.695V402.123ZM480.476 409.726L508.611 417.823V425.997L480.476 419.154V409.726ZM428.47 397.143L463.18 406.723V518.947L428.47 529.211V397.143Z" fill="#211F20"/>
<path d="M478.785 391.992L413.996 373.42L316.043 401.498V414.685L413.996 386.607L478.785 405.178L512.157 414.744V401.558L478.785 391.992Z" fill="url(#paint9_linear_509_1751)"/>
<defs>
<radialGradient id="paint0_radial_509_1751" cx="0" cy="0" r="1" gradientUnits="userSpaceOnUse" gradientTransform="translate(415.339 264.607) rotate(0.959322) scale(76.7638 254.041)">
<stop stop-color="#231F20"/>
<stop offset="0.0959" stop-color="#2A2627"/>
<stop offset="0.2363" stop-color="#3D3A3B"/>
<stop offset="0.4043" stop-color="#5D5A5B"/>
<stop offset="0.5935" stop-color="#898787"/>
<stop offset="0.7976" stop-color="#C1C0C0"/>
<stop offset="1" stop-color="white"/>
</radialGradient>
<linearGradient id="paint1_linear_509_1751" x1="377.554" y1="276.289" x2="453.607" y2="277.579" gradientUnits="userSpaceOnUse">
<stop offset="0.1628" stop-color="#ED1C24"/>
<stop offset="0.6163" stop-color="#991824"/>
</linearGradient>
<radialGradient id="paint2_radial_509_1751" cx="0" cy="0" r="1" gradientUnits="userSpaceOnUse" gradientTransform="translate(419.396 437.488) rotate(-64.9956) scale(179.035 179.035)">
<stop offset="0.6172" stop-color="#414042"/>
<stop offset="1" stop-color="white"/>
</radialGradient>
<linearGradient id="paint3_linear_509_1751" x1="-64.5529" y1="206.926" x2="511.93" y2="481.573" gradientUnits="userSpaceOnUse">
<stop stop-color="#808285"/>
<stop offset="0.1596" stop-color="#A2A4A6"/>
<stop offset="0.6054" stop-color="white"/>
<stop offset="1" stop-color="#939598"/>
</linearGradient>
<linearGradient id="paint4_linear_509_1751" x1="109.967" y1="455.31" x2="707.884" y2="420.872" gradientUnits="userSpaceOnUse">
<stop stop-color="#808285"/>
<stop offset="0.1596" stop-color="#A2A4A6"/>
<stop offset="0.6054" stop-color="white"/>
<stop offset="1" stop-color="#939598"/>
</linearGradient>
<linearGradient id="paint5_linear_509_1751" x1="495.049" y1="300.133" x2="493.098" y2="754.656" gradientUnits="userSpaceOnUse">
<stop stop-color="#FFF33B"/>
<stop offset="0.2777" stop-color="#FCDC3B"/>
<stop offset="0.8563" stop-color="#F6A23A"/>
<stop offset="1" stop-color="#F4933A"/>
</linearGradient>
<linearGradient id="paint6_linear_509_1751" x1="446.504" y1="299.925" x2="444.553" y2="754.448" gradientUnits="userSpaceOnUse">
<stop stop-color="#FFF33B"/>
<stop offset="0.2777" stop-color="#FCDC3B"/>
<stop offset="0.8563" stop-color="#F6A23A"/>
<stop offset="1" stop-color="#F4933A"/>
</linearGradient>
<linearGradient id="paint7_linear_509_1751" x1="394.978" y1="299.703" x2="393.027" y2="754.227" gradientUnits="userSpaceOnUse">
<stop stop-color="#FFF33B"/>
<stop offset="0.2777" stop-color="#FCDC3B"/>
<stop offset="0.8563" stop-color="#F6A23A"/>
<stop offset="1" stop-color="#F4933A"/>
</linearGradient>
<linearGradient id="paint8_linear_509_1751" x1="331.813" y1="299.432" x2="329.862" y2="753.955" gradientUnits="userSpaceOnUse">
<stop stop-color="#FFF33B"/>
<stop offset="0.2777" stop-color="#FCDC3B"/>
<stop offset="0.8563" stop-color="#F6A23A"/>
<stop offset="1" stop-color="#F4933A"/>
</linearGradient>
<linearGradient id="paint9_linear_509_1751" x1="414.566" y1="299.523" x2="412.615" y2="754.045" gradientUnits="userSpaceOnUse">
<stop stop-color="#FFF33B"/>
<stop offset="0.2777" stop-color="#FCDC3B"/>
<stop offset="0.8563" stop-color="#F6A23A"/>
<stop offset="1" stop-color="#F4933A"/>
</linearGradient>
</defs>
</svg>
