<svg width="42" height="42" viewBox="0 0 42 42" fill="none" xmlns="http://www.w3.org/2000/svg">
<path fill-rule="evenodd" clip-rule="evenodd" d="M31.7027 21.8657C32.665 20.5033 33.2304 18.8404 33.2304 17.0456C33.2304 12.4263 29.4857 8.68164 24.8665 8.68164C21.9327 8.68164 19.3517 10.1922 17.8588 12.4779C16.8256 12.2359 15.7485 12.1079 14.6416 12.1079L14.6284 12.1079C16.4659 8.30499 20.3598 5.68164 24.8665 5.68164C31.1426 5.68164 36.2304 10.7694 36.2304 17.0456C36.2304 19.0792 35.6962 20.9881 34.7605 22.6395C33.8147 22.2164 32.7848 21.9478 31.7027 21.8657Z" fill="url(#paint0_linear_122_379)"/>
<path fill-rule="evenodd" clip-rule="evenodd" d="M15.75 39L15.8116 38.9998V39H16.0459H24.2586H24.2587H31.496H31.5001C35.5439 39 39.0001 35.5743 39.0001 31.125C39.0001 26.6757 35.5439 23.25 31.5001 23.25C30.4049 23.25 29.3527 23.5013 28.4007 23.9562C28.2712 22.9259 28.0276 21.9327 27.6834 20.9908C27.94 20.887 28.2015 20.7934 28.4674 20.7105C28.2025 20.7931 27.9421 20.8862 27.6865 20.9895C25.8554 15.9142 21.1459 12.375 15.75 12.375C8.80673 12.375 3 18.2351 3 25.6875C3 33.1399 8.80673 39 15.75 39ZM31.8623 41.9936C37.4936 41.7959 42.0001 37.0055 42.0001 31.125C42.0001 25.1189 37.2991 20.25 31.5001 20.25C31.2026 20.25 30.9079 20.2628 30.6167 20.2879C28.4649 13.9324 22.6213 9.375 15.75 9.375C7.05152 9.375 0 16.6784 0 25.6875C0 34.6966 7.05152 42 15.75 42C15.8488 42 15.9475 41.9991 16.0459 41.9972V42H31.5001H31.8623V41.9936Z" fill="url(#paint1_linear_122_379)"/>
<defs>
<linearGradient id="paint0_linear_122_379" x1="25.4294" y1="5.68164" x2="25.4294" y2="22.6396" gradientUnits="userSpaceOnUse">
<stop stop-color="#EFC977"/>
<stop offset="1" stop-color="#E07256"/>
</linearGradient>
<linearGradient id="paint1_linear_122_379" x1="21" y1="9.375" x2="21" y2="42" gradientUnits="userSpaceOnUse">
<stop stop-color="#B2D4F7"/>
<stop offset="1" stop-color="#D9E2F3"/>
</linearGradient>
</defs>
</svg>
