<svg width="48" height="48" viewBox="0 0 48 48" fill="none" xmlns="http://www.w3.org/2000/svg">
<path d="M27.9543 3C27.1259 3 26.4543 3.67157 26.4543 4.5V5.15269C26.4543 5.98112 27.1259 6.65269 27.9543 6.65269C28.7828 6.65269 29.4543 5.98112 29.4543 5.15269V4.5C29.4543 3.67157 28.7828 3 27.9543 3Z" fill="url(#paint0_linear_122_405)"/>
<path d="M45.0002 20.0459C45.0002 19.2175 44.3286 18.5459 43.5002 18.5459H42.8475C42.0191 18.5459 41.3475 19.2175 41.3475 20.0459C41.3475 20.8743 42.0191 21.5459 42.8475 21.5459H43.5002C44.3286 21.5459 45.0002 20.8743 45.0002 20.0459Z" fill="url(#paint1_linear_122_405)"/>
<path d="M39.5532 13.3493C39.139 12.6319 39.3848 11.7145 40.1022 11.3003L40.6675 10.9739C41.3849 10.5597 42.3023 10.8055 42.7165 11.523C43.1307 12.2404 42.8849 13.1578 42.1675 13.572L41.6022 13.8983C40.8848 14.3125 39.9674 14.0667 39.5532 13.3493Z" fill="url(#paint2_linear_122_405)"/>
<path d="M36.4773 5.28368C35.7599 4.86946 34.8425 5.11528 34.4283 5.83271L34.102 6.39796C33.6877 7.1154 33.9336 8.03279 34.651 8.447C35.3684 8.86122 36.2858 8.6154 36.7 7.89796L37.0264 7.33271C37.4406 6.61528 37.1948 5.69789 36.4773 5.28368Z" fill="url(#paint3_linear_122_405)"/>
<path d="M21.2577 8.447C20.5403 8.86121 19.6229 8.6154 19.2087 7.89796L18.8823 7.33272C18.4681 6.61528 18.7139 5.69789 19.4314 5.28368C20.1488 4.86946 21.0662 5.11527 21.4804 5.83271L21.8067 6.39796C22.221 7.1154 21.9752 8.03279 21.2577 8.447Z" fill="url(#paint4_linear_122_405)"/>
<path d="M36.2305 20.0457C36.2305 21.8406 35.6651 23.5034 34.7027 24.8658C35.7848 24.9479 36.8148 25.2166 37.7605 25.6397C38.6963 23.9882 39.2305 22.0794 39.2305 20.0457C39.2305 13.7696 34.1427 8.68176 27.8665 8.68176C23.3645 8.68176 19.474 11.2997 17.6342 15.0963C17.6315 15.1018 17.6355 15.1082 17.6416 15.1082C18.7486 15.1082 19.8256 15.2362 20.8587 15.4782C22.3516 13.1923 24.9327 11.6818 27.8665 11.6818C32.4858 11.6818 36.2305 15.4264 36.2305 20.0457Z" fill="url(#paint5_linear_122_405)"/>
<path fill-rule="evenodd" clip-rule="evenodd" d="M18.75 42L18.8116 41.9998V42H19.0459H27.2586H27.2587H34.496H34.5001C38.5439 42 42.0001 38.5743 42.0001 34.125C42.0001 29.6757 38.5439 26.25 34.5001 26.25C33.4049 26.25 32.3527 26.5013 31.4007 26.9562C31.2712 25.9259 31.0276 24.9327 30.6834 23.9908C30.94 23.887 31.2015 23.7934 31.4674 23.7105C31.2025 23.7931 30.9421 23.8862 30.6865 23.9895C28.8554 18.9142 24.1459 15.375 18.75 15.375C11.8067 15.375 6 21.2351 6 28.6875C6 36.1399 11.8067 42 18.75 42ZM34.8623 44.9936C40.4936 44.7959 45.0001 40.0055 45.0001 34.125C45.0001 28.1189 40.2991 23.25 34.5001 23.25C34.2026 23.25 33.9079 23.2628 33.6167 23.2879C31.4649 16.9324 25.6213 12.375 18.75 12.375C10.0515 12.375 3 19.6784 3 28.6875C3 37.6966 10.0515 45 18.75 45C18.8488 45 18.9475 44.9991 19.0459 44.9972V45H34.5001H34.8623V44.9936Z" fill="url(#paint6_linear_122_405)"/>
<defs>
<linearGradient id="paint0_linear_122_405" x1="31.3143" y1="3" x2="31.3143" y2="25.6397" gradientUnits="userSpaceOnUse">
<stop stop-color="#EFC977"/>
<stop offset="1" stop-color="#E07256"/>
</linearGradient>
<linearGradient id="paint1_linear_122_405" x1="31.3143" y1="3" x2="31.3143" y2="25.6397" gradientUnits="userSpaceOnUse">
<stop stop-color="#EFC977"/>
<stop offset="1" stop-color="#E07256"/>
</linearGradient>
<linearGradient id="paint2_linear_122_405" x1="31.3143" y1="3" x2="31.3143" y2="25.6397" gradientUnits="userSpaceOnUse">
<stop stop-color="#EFC977"/>
<stop offset="1" stop-color="#E07256"/>
</linearGradient>
<linearGradient id="paint3_linear_122_405" x1="31.3143" y1="3" x2="31.3143" y2="25.6397" gradientUnits="userSpaceOnUse">
<stop stop-color="#EFC977"/>
<stop offset="1" stop-color="#E07256"/>
</linearGradient>
<linearGradient id="paint4_linear_122_405" x1="31.3143" y1="3" x2="31.3143" y2="25.6397" gradientUnits="userSpaceOnUse">
<stop stop-color="#EFC977"/>
<stop offset="1" stop-color="#E07256"/>
</linearGradient>
<linearGradient id="paint5_linear_122_405" x1="31.3143" y1="3" x2="31.3143" y2="25.6397" gradientUnits="userSpaceOnUse">
<stop stop-color="#EFC977"/>
<stop offset="1" stop-color="#E07256"/>
</linearGradient>
<linearGradient id="paint6_linear_122_405" x1="24" y1="12.375" x2="24" y2="45" gradientUnits="userSpaceOnUse">
<stop stop-color="#B2D4F7"/>
<stop offset="1" stop-color="#D9E2F3"/>
</linearGradient>
</defs>
</svg>
