<svg width="251" height="199" viewBox="0 0 251 199" fill="none" xmlns="http://www.w3.org/2000/svg">
<path d="M242.734 114.056C241.98 113.22 241.228 112.42 240.48 111.649C226.221 96.9593 216.243 94.4108 217.93 68.0431C220.473 28.2919 205.395 9.37085 184.567 3.09506C162.048 -3.69065 138.733 18.462 120.542 11.8092C101.021 4.67025 86.5709 -6.35497 64.8674 4.67025C44.1997 15.1691 44.0111 48.3401 34.1614 60.0604C24.3116 71.7806 0 83.414 0 104.343C0 118.057 1.26004 133.554 24.252 145.773C42.5955 155.521 30.3915 178.18 30.3915 178.18C30.572 181.643 40.6915 185.013 41.926 187.646H181.645C189.899 177.139 195.04 179.361 214.977 177.872C254.253 174.94 257.847 130.808 242.734 114.056Z" fill="#FFF6CF"/>
<path d="M103.604 125.178C121.488 125.178 135.985 110.68 135.985 92.7965C135.985 74.9128 121.488 60.4153 103.604 60.4153C85.7207 60.4153 71.2231 74.9128 71.2231 92.7965C71.2231 110.68 85.7207 125.178 103.604 125.178Z" fill="#FFFAF5"/>
<mask id="mask0_23_508" style="mask-type:luminance" maskUnits="userSpaceOnUse" x="0" y="0" width="251" height="188">
<path d="M242.734 114.056C241.98 113.22 241.228 112.42 240.48 111.649C226.221 96.9593 216.243 94.4108 217.93 68.0431C220.473 28.2919 205.395 9.37085 184.567 3.09506C162.048 -3.69065 138.733 18.462 120.542 11.8092C101.021 4.67025 86.5709 -6.35497 64.8674 4.67025C44.1997 15.1691 44.0111 48.3401 34.1614 60.0604C24.3116 71.7806 0 83.414 0 104.343C0 118.057 1.26004 133.554 24.252 145.773C42.5955 155.521 30.3915 178.18 30.3915 178.18C30.572 181.643 40.6915 185.013 41.926 187.646H181.645C189.899 177.139 195.04 179.361 214.977 177.872C254.253 174.94 257.847 130.808 242.734 114.056Z" fill="white"/>
</mask>
<g mask="url(#mask0_23_508)">
<path d="M210.119 77.4408C209.514 74.421 202.779 74.1268 198.666 70.1923V69.4234C199.494 69.2854 200.126 68.5677 200.126 67.7006C200.126 66.9141 199.607 66.2492 198.893 66.0294C199.351 65.8301 199.673 65.3747 199.673 64.8426C199.673 64.2271 199.242 63.7143 198.666 63.5832V58.9581C200.152 58.8133 201.314 57.5612 201.314 56.0371C201.314 54.513 200.152 53.2609 198.666 53.1161V-29.2351H198.05V53.1207C196.584 53.2842 195.443 54.5266 195.443 56.0371C195.443 57.5476 196.584 58.79 198.05 58.9535V63.5956C197.496 63.7416 197.084 64.2419 197.084 64.8426C197.084 65.3741 197.405 65.8301 197.863 66.0294C197.149 66.2492 196.63 66.9141 196.63 67.7006C196.63 68.554 197.241 69.2638 198.05 69.4172V70.2292C193.934 74.128 187.24 74.4306 186.637 77.4408C186.019 80.5304 188.738 81.025 188.738 81.025H188.721V82.5156H188.63C188.2 82.5156 187.851 82.8642 187.851 83.2946V83.4377C187.851 83.8682 188.2 84.2168 188.63 84.2168H188.721V106.923H188.63C188.2 106.923 187.851 107.272 187.851 107.702V107.845C187.851 108.276 188.2 108.624 188.63 108.624H188.721V109.554L198.378 115.358L208.035 109.554V108.624H208.126C208.556 108.624 208.905 108.276 208.905 107.845V107.702C208.905 107.272 208.556 106.923 208.126 106.923H208.035V84.2168H208.126C208.556 84.2168 208.905 83.8682 208.905 83.4377V83.2946C208.905 82.8642 208.556 82.5156 208.126 82.5156H208.035V81.025H208.018C208.018 81.025 210.737 80.5304 210.119 77.4408ZM192.634 102.686C192.541 103.653 191.481 103.241 190.867 104.556C190.253 103.241 189.194 103.653 189.101 102.686C189.047 102.132 189.159 101.845 189.264 101.701V89.3263C189.159 89.182 189.047 88.8953 189.101 88.3411C189.194 87.3746 190.253 87.7863 190.867 86.4717C191.481 87.7863 192.541 87.374 192.634 88.3411C192.687 88.8953 192.575 89.182 192.47 89.3263V101.701C192.575 101.845 192.687 102.132 192.634 102.686ZM194.705 102.686C194.594 102.132 194.827 101.845 195.045 101.701V89.3263C194.827 89.182 194.594 88.8953 194.705 88.3411C194.898 87.3746 197.102 87.7863 198.378 86.4717C199.654 87.7863 201.857 87.374 202.051 88.3411C202.161 88.8953 201.929 89.182 201.711 89.3263V101.701C201.929 101.845 202.161 102.132 202.051 102.686C201.858 103.653 199.654 103.241 198.378 104.556C197.102 103.241 194.899 103.653 194.705 102.686ZM207.655 102.686C207.562 103.653 206.503 103.241 205.889 104.556C205.276 103.241 204.215 103.653 204.122 102.686C204.069 102.132 204.181 101.845 204.286 101.701V89.3263C204.181 89.182 204.069 88.8953 204.122 88.3411C204.215 87.3746 205.275 87.7863 205.889 86.4717C206.503 87.7863 207.562 87.374 207.655 88.3411C207.709 88.8953 207.597 89.182 207.492 89.3263V101.701C207.597 101.845 207.709 102.132 207.655 102.686Z" fill="#0C6E52"/>
<path d="M199.739 115.759C199.739 116.511 199.13 117.12 198.378 117.12C197.626 117.12 197.017 116.511 197.017 115.759C197.017 115.007 197.626 114.398 198.378 114.398C199.13 114.398 199.739 115.008 199.739 115.759Z" fill="#0C6E52"/>
<path d="M200.431 119.015C200.431 120.149 199.512 121.069 198.378 121.069C197.244 121.069 196.325 120.149 196.325 119.015C196.325 117.881 197.244 116.961 198.378 116.961C199.511 116.961 200.431 117.881 200.431 119.015Z" fill="#0C6E52"/>
<path d="M199.469 122.036C199.469 122.638 198.981 123.127 198.378 123.127C197.776 123.127 197.287 122.638 197.287 122.036C197.287 121.433 197.775 120.944 198.378 120.944C198.981 120.944 199.469 121.433 199.469 122.036Z" fill="#0C6E52"/>
<path d="M167.861 49.0771C167.257 46.0573 160.521 45.7632 156.408 41.8286V41.0598C157.236 40.9218 157.869 40.204 157.869 39.3369C157.869 38.5505 157.349 37.8855 156.635 37.6658C157.093 37.4665 157.414 37.0111 157.414 36.479C157.414 35.8634 156.984 35.3507 156.408 35.2195V30.5944C157.894 30.4496 159.055 29.1976 159.055 27.6735C159.055 26.1494 157.894 24.8973 156.408 24.7525V-57.5988H155.792V24.757C154.325 24.9206 153.184 26.163 153.184 27.6735C153.184 29.1839 154.325 30.4264 155.792 30.5899V35.232C155.237 35.378 154.825 35.8782 154.825 36.479C154.825 37.0105 155.146 37.4665 155.605 37.6658C154.891 37.8855 154.372 38.5505 154.372 39.3369C154.372 40.1904 154.983 40.9002 155.792 41.0535V41.8655C151.676 45.7643 144.982 46.067 144.379 49.0771C143.762 52.1667 146.48 52.6613 146.48 52.6613H146.463V54.1519H146.373C145.942 54.1519 145.593 54.5006 145.593 54.931V55.0741C145.593 55.5045 145.942 55.8532 146.373 55.8532H146.463V78.5595H146.373C145.942 78.5595 145.593 78.9081 145.593 79.3385V79.4816C145.593 79.9121 145.942 80.2607 146.373 80.2607H146.463V81.1908L156.12 86.9948L165.777 81.1908V80.2607H165.868C166.298 80.2607 166.647 79.9121 166.647 79.4816V79.3385C166.647 78.9081 166.298 78.5595 165.868 78.5595H165.777V55.8532H165.868C166.298 55.8532 166.647 55.5045 166.647 55.0741V54.931C166.647 54.5006 166.298 54.1519 165.868 54.1519H165.777V52.6613H165.76C165.76 52.6613 168.479 52.1667 167.861 49.0771ZM150.375 74.3228C150.282 75.2893 149.223 74.8776 148.609 76.1921C147.995 74.8776 146.935 75.2893 146.842 74.3228C146.789 73.7686 146.901 73.4818 147.006 73.3376V60.9626C146.901 60.8184 146.789 60.5316 146.842 59.9774C146.935 59.011 147.995 59.4226 148.609 58.1081C149.223 59.4226 150.282 59.0104 150.375 59.9774C150.429 60.5316 150.317 60.8184 150.212 60.9626V73.3376C150.317 73.4818 150.429 73.7686 150.375 74.3228ZM152.447 74.3228C152.337 73.7686 152.569 73.4818 152.787 73.3376V60.9626C152.569 60.8184 152.337 60.5316 152.447 59.9774C152.64 59.011 154.844 59.4226 156.12 58.1081C157.396 59.4226 159.599 59.0104 159.793 59.9774C159.904 60.5316 159.671 60.8184 159.453 60.9626V73.3376C159.671 73.4818 159.904 73.7686 159.793 74.3228C159.6 75.2893 157.396 74.8776 156.12 76.1921C154.844 74.8776 152.64 75.2893 152.447 74.3228ZM165.397 74.3228C165.304 75.2893 164.244 74.8776 163.63 76.1921C163.017 74.8776 161.957 75.2893 161.864 74.3228C161.81 73.7686 161.922 73.4818 162.027 73.3376V60.9626C161.922 60.8184 161.81 60.5316 161.864 59.9774C161.957 59.011 163.017 59.4226 163.63 58.1081C164.244 59.4226 165.304 59.0104 165.397 59.9774C165.45 60.5316 165.338 60.8184 165.233 60.9626V73.3376C165.338 73.4818 165.45 73.7686 165.397 74.3228Z" fill="#AC8935"/>
<path d="M157.481 87.3963C157.481 88.1481 156.871 88.7568 156.119 88.7568C155.368 88.7568 154.758 88.1475 154.758 87.3963C154.758 86.6445 155.368 86.0352 156.119 86.0352C156.871 86.0352 157.481 86.6445 157.481 87.3963Z" fill="#AC8935"/>
<path d="M158.174 90.6517C158.174 91.7856 157.254 92.705 156.12 92.705C154.986 92.705 154.067 91.7856 154.067 90.6517C154.067 89.5177 154.986 88.5978 156.12 88.5978C157.254 88.5983 158.174 89.5177 158.174 90.6517Z" fill="#AC8935"/>
<path d="M157.211 93.672C157.211 94.2744 156.722 94.7633 156.12 94.7633C155.517 94.7633 155.028 94.2744 155.028 93.672C155.028 93.0695 155.517 92.5806 156.12 92.5806C156.723 92.5806 157.211 93.0695 157.211 93.672Z" fill="#AC8935"/>
</g>
<path d="M225.861 162.614C210.529 155.232 197.468 145.579 179.298 146.147C171.916 146.715 166.237 138.765 159.423 134.79C158.287 134.222 156.016 134.222 154.88 134.79C135.006 152.961 108.317 149.554 84.468 146.147C71.4076 143.876 61.1864 134.79 49.2618 129.679C44.1512 127.408 37.9049 125.705 32.2265 127.408C25.0132 129.428 19.265 134.232 13.3452 138.471C16.2883 141 19.8743 143.446 24.2518 145.773C42.5953 155.521 30.3913 178.179 30.3913 178.179C30.5718 181.643 40.6913 185.012 41.9258 187.646H181.644C189.899 177.139 195.04 179.36 214.977 177.872C228.604 176.854 237.933 170.875 243.678 162.802C237.485 164.063 231.457 165.063 225.861 162.614Z" fill="#F4E7B0"/>
<path d="M30.3907 178.179H214.977L245.038 198.58V198.888H5.66748V198.58L30.3907 178.179Z" fill="#AC8935"/>
<path d="M30.3907 177.872H214.977L245.038 198.58H5.66748L30.3907 177.872Z" fill="#AC8935"/>
<path d="M35.7201 178.658H208.497L229.4 195.702H19.4707L35.7201 178.658Z" fill="#0C6E52"/>
<path d="M40.6021 182.668C40.6021 182.668 34.1668 188.914 33.6932 190.713C33.2202 192.511 38.9134 191.849 43.1648 191.849C47.4162 191.849 103.589 192.795 122.207 193.173C140.826 193.552 158.24 192.795 163.35 190.145C168.461 187.495 163.017 181.96 154.615 180.73C146.212 179.5 40.6021 182.668 40.6021 182.668Z" fill="#0C6E52"/>
<path d="M79.365 181.044C79.365 181.044 55.4214 183.805 49.2137 181.044C43.0061 178.283 43.1299 170.302 43.7329 164.316C44.3359 158.331 51.2091 149.241 54.0909 148.797C56.9727 148.354 67.3932 155.226 68.0581 155.448C68.723 155.67 79.365 181.044 79.365 181.044Z" fill="#0C6E52"/>
<path d="M43.7495 185.534C43.7495 185.534 43.2419 186.555 44.0453 186.809C44.8488 187.063 44.997 186.238 45.7165 185.413C46.4354 184.588 48.2758 184.631 48.2758 184.631C48.2758 184.631 46.1219 182.74 45.6739 182.843C45.2265 182.944 43.7495 185.534 43.7495 185.534Z" fill="#D1864E"/>
<path d="M41.5923 186.555C41.5923 186.555 42.0999 187.655 43.1152 187.359C44.1305 187.063 43.4111 186.512 44.3418 185.328C45.2725 184.143 46.88 183.594 46.88 183.594C46.88 183.594 43.9596 182.14 42.6922 182.842C41.4248 183.545 41.5923 186.555 41.5923 186.555Z" fill="#D89055"/>
<path d="M39.3804 186.322C39.3804 186.322 39.4133 188.226 40.8727 188.226C42.332 188.226 41.6341 187.528 42.2054 185.878C42.7766 184.228 44.3626 183.403 45.3149 183.276C43.7283 182.134 40.1089 183.276 39.3804 186.322Z" fill="#E09D61"/>
<path d="M76.1471 190.49C75.7037 190.49 67.1054 190.068 61.4134 189.59C53.4999 188.925 50.5806 186.005 46.2577 184.121C41.9347 182.237 40.0131 184.712 40.0131 186.375C40.0131 188.038 40.1238 189.146 37.3528 188.814C34.5817 188.481 35.1359 184.491 37.3528 180.167C39.5696 175.844 45.8142 170.265 49.805 167.272C53.7958 164.279 57.6014 162.764 57.6384 169.119C57.6753 175.474 68.7232 179.945 75.2636 178.061C81.8034 176.177 76.1471 190.49 76.1471 190.49Z" fill="#E5A86C"/>
<path d="M75.2635 178.061C68.7232 179.946 57.6752 175.475 57.6383 169.119C57.6014 162.764 53.7957 164.279 49.8049 167.272C46.855 169.485 42.6768 173.11 39.8013 176.597C43.055 175 46.5467 174.601 49.7567 176.741C55.8485 180.295 61.9397 179.787 67.5239 181.31C70.9559 182.454 70.6635 186.748 68.7998 190.106C72.6044 190.335 75.8785 190.49 76.1477 190.49C76.1477 190.49 81.8034 176.177 75.2635 178.061Z" fill="#E09D61"/>
<path d="M152.526 156.261C152.526 156.261 162.133 167.399 157.403 181.044C152.673 194.689 132.572 190.92 125.7 190.92C118.827 190.92 114.172 191.875 104.195 191.397C94.2187 190.92 75.5958 190.477 75.5958 190.477C71.827 177.396 71.3835 168.75 75.5958 159.993C79.808 151.235 81.3599 149.019 97.1005 147.91C112.842 146.802 152.526 156.261 152.526 156.261Z" fill="#0C6E52"/>
<path d="M152.513 156.257C152.212 156.186 141.104 153.548 128.387 151.24C128.385 151.239 128.381 151.239 128.379 151.239C126.347 150.885 103.376 147.392 91.981 148.371C90.9169 148.494 89.9436 148.632 89.0436 148.784C82.7025 150.165 76.6266 160.359 73.1576 167.307C72.4921 170.752 72.4484 174.368 72.9544 178.396C73.4308 177.825 77.3875 173.425 87.7012 171.41C98.7423 169.253 113.971 179.278 129.073 180.547C122.728 178.898 114.352 176.994 112.829 173.821C111.306 170.649 122.855 172.425 127.931 173.187C133.007 173.948 135.545 172.933 139.352 174.456C143.159 175.979 145.317 176.815 146.84 179.887C146.966 176.614 141.129 171.947 136.052 171.107C141.383 170.776 149.118 172.934 150.327 174.964C149.378 170.395 142.015 168.111 134.465 168.111C126.915 168.111 132.418 163.698 140.073 165.523C147.728 167.349 151.068 168.872 153.269 166.461C154.668 164.928 155.491 162.08 154.779 159.551C153.619 157.567 152.635 156.39 152.539 156.277C152.532 156.271 152.522 156.264 152.513 156.257Z" fill="#0C6E52"/>
<path d="M74.0442 43.489L72.6031 46.1494C72.6031 46.1494 68.1319 53.5205 66.137 55.0446C64.1417 56.5692 69.1671 64.3288 73.3793 68.8363C77.5916 73.3444 81.9514 76.0048 81.9514 76.0048C81.9514 76.0048 85.4249 72.4575 86.9025 72.4575C88.3805 72.4575 87.7894 51.9129 87.7894 51.9129L74.0442 43.489Z" fill="#E5A86C"/>
<path d="M87.7895 51.9135L74.0443 43.489L72.6031 46.1494C72.6031 46.1494 71.8434 47.402 70.811 48.9806C71.8445 52.5376 75.5173 53.3394 79.1992 52.8788C77.7892 60.2824 78.097 69.3962 82.3246 75.6362C83.2581 74.7305 85.7186 72.4575 86.9031 72.4575C88.3806 72.458 87.7895 51.9135 87.7895 51.9135Z" fill="#DD965B"/>
<path d="M113.581 48.3662C113.581 48.3662 112.029 53.3916 109.59 55.387C107.743 57.2342 108.74 61.8899 108.796 65.77C108.685 67.7654 104.75 66.9892 104.75 66.9892C104.75 66.9892 103.937 69.2429 103.715 70.1299C103.494 71.0169 103.272 71.0538 102.237 71.1645C101.202 71.2752 99.6505 71.5342 99.4659 71.608C101.387 71.7187 101.498 71.9776 101.461 72.5319C101.424 73.0861 100.242 73.751 99.2814 74.1207C98.3206 74.4903 99.3921 76.7441 97.8771 78.1115C96.3621 79.4788 87.4572 78.296 84.4641 71.202C81.471 64.1074 81.998 60.6759 86.3482 51.3985L72.603 46.1499C72.603 46.1499 73.49 32.7369 84.4641 27.527C95.4382 22.317 119.308 33.1799 113.581 48.3662Z" fill="#ECB67B"/>
<path d="M83.2495 59.1218C83.2495 59.1218 85.5777 59.2626 86.4033 57.161C85.6288 59.5624 84.3954 59.6669 83.082 59.747L83.2495 59.1218Z" fill="#DD965B"/>
<path d="M104.581 63.0739C104.581 63.0739 102.867 63.9517 102.645 64.967C102.423 65.9823 104.46 66.8057 104.46 66.8057C104.46 66.8057 103.675 66.0459 103.604 65.1891C103.533 64.3322 104.581 63.0739 104.581 63.0739Z" fill="#DD965B"/>
<path d="M101.904 56.7175L103.056 57.6988C103.439 58.0156 103.824 58.3279 104.232 58.5818C104.641 58.8361 105.06 59.0343 105.459 58.856C105.863 58.6885 106.167 58.2587 106.486 57.8629C106.315 58.3285 106.13 58.8594 105.613 59.1661C105.363 59.3217 105.033 59.3535 104.75 59.2904C104.463 59.2189 104.228 59.0922 103.998 58.9582C103.116 58.3762 102.426 57.5977 101.904 56.7175Z" fill="#7A4313"/>
<path d="M101.789 54.6483C101.789 54.6483 104.264 54.0941 106.334 54.4638C108.403 54.8334 109.216 55.4615 109.696 54.6483C110.177 53.8352 106.518 51.5076 101.789 54.6483Z" fill="#7A4313"/>
<path d="M107.89 45.9774C107.89 45.9774 104.048 49.9926 99.6873 50.1402C95.3274 50.2879 93.7017 52.1356 92.7409 54.3525C91.7801 56.5693 94.0958 58.8606 93.5291 62.4079C92.9624 65.9552 93.554 66.7678 96.2144 67.0636C98.8747 67.3594 103.826 66.029 104.75 66.9898C105.673 67.9506 105.605 71.4172 102.2 73.4927C99.5397 75.0446 101.018 77.4835 99.8349 79.7742C98.6527 82.0648 87.0085 78.4676 84.7389 73.5415C82.4686 68.6155 83.0478 65.2397 84.7389 62.2602C86.4299 59.2802 88.7501 54.6483 87.8637 51.3968C86.9767 48.1454 83.3698 48.5747 81.8849 50.1334C80.4 51.6921 75.8181 51.5814 73.8227 50.9165C71.8273 50.2515 71.0317 48.6422 71.0317 48.6422C71.0317 48.6422 72.2248 35.0055 78.7879 31.7098C85.3504 28.4135 107.89 45.9774 107.89 45.9774Z" fill="#70360B"/>
<path d="M87.8286 71.1537C83.3665 65.7002 91.0039 59.2779 88.0523 52.8329C88.1091 55.9112 86.1937 59.6958 84.7389 62.2596C83.0479 65.2397 82.4687 68.6149 84.7389 73.5409C87.0092 78.467 98.6528 82.0648 99.835 79.7736C100.621 78.2512 100.236 76.6652 100.668 75.316C95.8141 76.1672 90.8427 74.9214 87.8286 71.1537Z" fill="#5E2E0B"/>
<path d="M107.891 45.9773C107.891 45.9773 85.3512 28.4134 78.7875 31.7092C77.0789 32.5672 75.7371 34.1287 74.6826 35.9657C82.5864 42.2335 91.7128 46.849 101.693 49.8057C105.159 48.8199 107.891 45.9773 107.891 45.9773Z" fill="#5E2E0B"/>
<path d="M112.571 50.9715C112.571 50.9715 101.979 51.101 89.8586 43.8588C77.7391 36.6165 75.1123 35.2565 75.1123 35.2565C75.1123 35.2565 79.1457 18.5205 81.0031 16.4144C82.8605 14.3083 97.575 19.3513 106.486 24.8747C116.848 31.2975 122.364 35.4649 122.474 37.9038C122.585 40.3427 112.571 50.9715 112.571 50.9715Z" fill="#AC8935"/>
<path d="M96.4124 36.6153C86.8102 30.8773 80.1244 26.7161 77.756 25.2318C77.0507 27.6872 76.392 30.1834 75.9082 32.0726C78.0331 33.407 83.0289 36.5063 91.7328 41.7077C103.852 48.95 114.445 48.8205 114.445 48.8205C114.445 48.8205 115.558 47.6383 117.037 45.9751C117.662 45.2426 118.296 44.4811 118.901 43.7264C117.337 43.698 107.52 43.2528 96.4124 36.6153Z" fill="#0C6E52"/>
<path d="M116.34 36.3808C120.571 38.5806 123.086 39.86 122.252 37.0628C121.129 34.5495 115.743 30.6127 106.486 24.8746C97.9127 19.5602 83.9728 14.6944 81.2744 16.2088C80.656 16.9941 86.5774 19.6403 94.0468 24.1978C101.534 28.7666 112.11 34.181 116.34 36.3808Z" fill="#AC8935"/>
<path d="M88.5283 51.47C88.5283 51.47 90.0802 47.9966 88.011 46.4446C85.9417 44.8927 82.173 47.2833 81.2122 52.4064C80.2514 57.5295 82.8379 59.488 84.1315 59.1921C85.425 58.8963 85.9792 58.1944 86.5334 56.8645C87.0876 55.5346 88.5283 51.47 88.5283 51.47Z" fill="#ECB67B"/>
<path d="M81.9697 52.3076C81.9697 52.3076 82.4143 49.5053 84.529 47.5275C85.8958 46.2493 87.4165 47.193 87.4528 49.2338C87.4891 51.2747 86.6607 54.5619 85.5556 55.496C84.4506 56.4301 83.6744 55.496 83.7107 54.7845C83.7471 54.073 84.7783 52.9572 85.3785 52.9975C85.7158 51.6284 84.6159 50.6552 84.2059 50.7647C84.8191 50.3377 86.1485 51.1367 86.0854 51.9816C86.5533 49.9755 86.9684 48.8994 86.4528 48.0465C85.9367 47.1936 84.3961 47.9125 83.7045 48.9874C83.0128 50.0618 81.9697 52.3076 81.9697 52.3076Z" fill="#CC894C"/>
<path d="M41.9521 174.195C41.9521 174.195 39.0152 168.306 38.7932 159.66C38.5717 151.014 32.3641 152.788 30.8122 143.698C29.2603 134.608 32.3641 130.618 32.5855 124.631C32.8076 118.645 29.4817 113.103 32.1421 107.782C34.8024 102.462 31.4771 98.0274 34.1375 89.1594C36.7978 80.2914 40.7886 71.867 45.6658 68.6149C50.543 65.3635 55.854 56.5046 62.8589 55.5903C63.9917 60.543 69.5356 66.5457 72.6025 69.3543C75.6694 72.1622 84.5374 78.6288 85.0178 79.4601C85.4982 80.2915 91.632 93.2036 90.5974 98.5714C89.5628 103.939 90.745 106.008 91.9278 109.703C93.1101 113.398 94.4405 125.37 94.2929 129.656C94.1453 133.942 104.491 146.949 107.743 147.983C110.994 149.018 115.429 151.531 115.429 151.531C115.429 151.531 89.711 155.373 82.0258 162.764C74.3401 170.154 71.8274 177.396 71.8274 177.396C71.8274 177.396 59.7079 162.468 58.6733 156.851C57.7495 166.865 63.1161 179.887 63.1161 179.887C63.1161 179.887 46.0905 170.547 41.9521 174.195Z" fill="#0C6E52"/>
<path d="M92.2235 157.227C86.8483 155.255 75.0105 150.669 72.9044 147.82C70.1629 144.111 71.9232 124.962 76.7964 119.717C81.6696 114.472 82.2448 108.38 82.4141 102.796C82.4141 102.796 79.3653 111.626 77.676 112.103C80.2142 103.473 82.0756 91.7971 79.3647 86.2135C81.2227 99.5811 74.4609 110.749 74.4609 110.749C74.4609 110.749 62.7855 124.624 50.7716 110.749C38.7578 96.8736 43.4618 80.4806 43.4618 80.4806C38.521 91.4996 42.3108 101.612 43.4618 105.165C44.6128 108.718 40.1116 104.488 37.9117 95.5199C37.4041 100.427 39.2655 107.534 42.6498 114.133C46.0341 120.733 47.7263 128.178 46.2034 127.332C44.6804 126.485 39.7731 119.379 36.897 109.903C36.3894 119.548 45.0188 132.069 46.5418 138.668C48.0647 145.268 47.0494 146.283 49.7569 151.19C52.4644 156.097 55.5103 151.867 60.5862 157.959C64.5043 162.66 74.9674 164.666 79.5419 165.337C80.3028 164.488 81.1279 163.627 82.0257 162.764C84.2595 160.616 88.0175 158.768 92.2235 157.227Z" fill="#0C6E52"/>
<path d="M102.55 149.762C102.55 149.762 102.042 147.552 93.7586 145.648C79.6369 147.806 70.125 157.959 70.125 157.959C70.125 157.959 64.8583 150.851 59.1475 142.095C50.0104 148.06 50.0104 158.212 50.8985 166.208C48.8071 165.923 42.4422 165.681 39.3804 165.577C39.7625 167.783 40.2719 169.645 40.7364 171.067C44.4728 170.938 53.1511 170.975 56.9471 173.822C51.5742 156.689 58.8937 148.776 58.8937 148.776C58.8937 148.776 67.2694 166.334 71.7116 168.619C79.5796 150.217 102.55 149.762 102.55 149.762Z" fill="#AC8935"/>
<path d="M87.9064 116.713C87.5742 117.909 91.5445 119.836 93.7585 120.808C93.2889 116.377 92.586 111.76 91.9278 109.703C90.7456 106.008 89.5628 103.939 90.5979 98.5714C91.6326 93.2036 85.4987 80.2915 85.0183 79.4601C84.5379 78.6288 75.67 72.1622 72.603 69.3543C69.5361 66.5463 63.9923 60.5436 62.8595 55.5903C58.6835 56.1355 55.1101 59.5033 51.8717 62.8241C51.715 64.7053 52.2561 66.778 54.5792 68.3617C60.1633 72.169 67.6674 69.6308 76.7966 77.8798C85.9258 86.1289 86.9405 91.332 86.0524 97.5504C85.1637 103.769 88.3646 115.064 87.9064 116.713Z" fill="#0C6E52"/>
<path d="M163.907 152.935C162.355 152.566 150.161 148.723 148.61 148.058C147.058 147.393 143.88 146.876 140.259 145.102C136.638 143.329 133.312 142.663 133.312 142.663C133.312 142.663 123.251 154.53 128.884 154.786C134.466 155.04 136.16 156.67 138.635 158.932C139.874 160.064 142.141 161.173 143.864 161.565C144.029 162.46 145.234 163.941 147.576 164.833C150.68 166.016 152.306 166.163 152.897 163.134C152.897 163.134 155.336 161.73 154.301 158.922C156.37 155.523 152.232 152.714 152.232 152.714C152.232 152.714 157.922 154.672 161.137 155.042C164.35 155.411 165.385 153.748 163.907 152.935Z" fill="#ECB67B"/>
<path d="M152.896 163.133C152.896 163.133 153.313 160.592 151.885 158.593C150.458 156.594 148.967 156.594 148.935 156.086C148.903 155.579 149.474 155.833 150.807 156.658C152.139 157.483 154.097 160.44 152.896 163.133Z" fill="#E5A86C"/>
<path d="M154.3 158.921C154.3 158.921 153.535 155.96 151.981 154.817C150.426 153.675 149.696 153.834 149.474 153.39C149.252 152.946 149.823 152.818 150.902 153.39C151.981 153.961 154.366 156.203 154.3 158.921Z" fill="#E5A86C"/>
<path d="M164.502 153.536C164.015 155.355 161.618 154.784 159.087 154.141C156.422 153.464 151.346 151.582 149.632 150.503C147.919 149.424 146.745 150.407 148.681 150.883C150.616 151.359 153.159 153.5 153.159 153.5C153.159 153.5 157.903 154.966 161.118 155.336C163.655 155.628 164.845 154.359 164.502 153.536Z" fill="#E5A86C"/>
<path d="M148.11 161.734C149.061 162.559 148.776 162.686 149.411 162.781C150.045 162.877 151.028 161.956 149.569 160.878C148.11 159.799 146.269 159.482 144.302 159.993C142.335 160.504 141.447 159.291 139.543 158.086C137.64 156.88 135.038 155.357 136.687 151.233C137.919 148.154 137.1 145 136.605 143.598C134.676 142.937 133.311 142.663 133.311 142.663C133.311 142.663 132.738 143.34 131.946 144.367L129.819 154.845C134.663 155.233 136.302 156.802 138.633 158.931C139.872 160.064 142.139 161.173 143.862 161.564C144.057 161.49 144.048 161.258 145.063 160.782C146.079 160.306 147.158 160.909 148.11 161.734Z" fill="#E5A86C"/>
<path d="M76.5272 86.0556C76.5272 86.0556 79.2171 93.1502 78.1825 97.4363C77.1479 101.722 77.8872 108.078 79.3647 111.625C80.8428 115.172 81.8513 120.789 85.4117 122.858C88.972 124.927 89.8584 128.179 90.1543 129.213C90.4501 130.248 93.554 130.839 97.5442 131.874C101.534 132.908 105.821 136.012 107.151 136.456C108.481 136.899 131.243 141.148 134.347 142.367C135.344 150.681 129.802 159.106 128.25 159.993C120.712 159.993 110.049 158.182 105.496 158.33C100.943 158.478 102.288 159.409 94.8838 158.182C87.4798 156.956 80.0405 159.069 72.9038 155.817C65.7672 152.566 57.4903 149.166 55.717 143.698C53.9436 138.229 50.9874 119.754 45.8882 106.452C40.789 93.1496 44.7798 79.2568 57.4165 76.0048C70.0538 72.7533 76.5272 86.0556 76.5272 86.0556Z" fill="#0C6E52"/>
<path d="M67.5231 80.9678C67.8615 80.8832 74.7994 84.4367 76.068 90.528C77.3371 96.6198 77.3371 104.403 76.068 106.095C74.7989 107.788 73.7836 107.111 67.5231 100.173C61.2626 93.2348 59.9935 98.5652 61.7697 101.357C63.5465 104.149 66.0848 108.548 71.9222 111.848C77.7602 115.148 81.2285 119.585 84.1898 122.908C87.1511 126.231 89.5202 128.262 88.1664 129.7C86.8127 131.138 81.9054 130.546 76.4064 125.977C70.9069 121.408 69.6377 119.378 66.254 113.879C62.8696 108.379 57.1168 98.396 59.2315 95.0116C61.3467 91.6273 64.731 94.504 66.5078 91.9657C68.2846 89.4275 62.1928 85.2817 63.2081 82.6594C64.2234 80.0371 67.5231 80.9678 67.5231 80.9678Z" fill="#0C6E52"/>
<path d="M121.84 141.08C121.84 141.08 117.144 144.252 108.134 142.095C99.1231 139.938 93.1585 141.962 84.529 142.663C75.8996 143.364 77.803 138.034 83.2599 136.511C88.7169 134.988 97.9812 135.876 98.7427 135.496C99.5042 135.115 90.8111 132.196 84.2752 133.592C77.7394 134.988 69.8078 135.063 66.6352 133.217C63.4627 131.372 65.3661 128.77 74.9479 130.039C84.5296 131.308 88.7481 130.744 91.6362 130.927C94.5242 131.11 97.0931 131.815 100.964 134.163C104.835 136.511 113.721 140.946 121.84 141.08Z" fill="#0C6E52"/>
<path d="M115.308 159.06C118.067 159.347 121.006 159.65 123.792 159.83C129.312 153.622 129.906 143.974 129.959 141.213C127.941 140.753 125.459 140.226 122.883 139.694C123.852 149.943 117.836 156.703 115.308 159.06Z" fill="#AC8935"/>
<path d="M61.105 55.9912L68.2064 50.9714C68.2064 50.9714 73.6009 63.9966 78.4787 68.3196C83.3559 72.6425 86.571 73.4739 85.0191 79.4601C79.6984 77.9638 71.7906 71.7039 67.2831 66.457C62.7744 61.2102 61.105 55.9912 61.105 55.9912Z" fill="#AC8935"/>
<path d="M78.4127 151.472C73.1875 154.692 70.1251 157.959 70.1251 157.959C70.1251 157.959 64.8583 150.851 59.1476 142.095C54.6752 145.015 52.3954 148.938 51.3335 153.121C52.6884 154.13 54.1875 153.94 56.004 154.546C57.1647 150.654 58.8932 148.777 58.8932 148.777C58.8932 148.777 62.2957 155.906 65.9134 161.671C68.4732 162.842 71.3948 163.695 74.0267 164.302C77.0181 159.748 81.035 156.618 85.1104 154.47C82.8254 153.529 80.4632 152.495 78.4127 151.472Z" fill="#AC8935"/>
</svg>
