<svg width="33" height="33" viewBox="0 0 33 33" fill="none" xmlns="http://www.w3.org/2000/svg">
<g clip-path="url(#clip0_1545_14790)">
<path d="M21.9785 3.47031H25.4488C26.0624 3.47031 26.6509 3.71406 27.0847 4.14793C27.5186 4.5818 27.7624 5.17026 27.7624 5.78385V28.9192C27.7624 29.5328 27.5186 30.1212 27.0847 30.5551C26.6509 30.989 26.0624 31.2327 25.4488 31.2327H6.94055C6.32696 31.2327 5.7385 30.989 5.30463 30.5551C4.87076 30.1212 4.62701 29.5328 4.62701 28.9192V5.78385C4.62701 5.17026 4.87076 4.5818 5.30463 4.14793C5.7385 3.71406 6.32696 3.47031 6.94055 3.47031H10.4109" stroke="#000001" stroke-width="2.31353" stroke-linecap="round" stroke-linejoin="round"/>
<path d="M19.665 1.15678H12.7244C11.4467 1.15678 10.4109 2.19258 10.4109 3.47031V4.62708C10.4109 5.90481 11.4467 6.94061 12.7244 6.94061H19.665C20.9428 6.94061 21.9786 5.90481 21.9786 4.62708V3.47031C21.9786 2.19258 20.9428 1.15678 19.665 1.15678Z" stroke="#000001" stroke-width="2.31353" stroke-linecap="round" stroke-linejoin="round"/>
<path d="M20.8218 18.5083H11.5676" stroke="#000001" stroke-width="2.31353" stroke-linecap="round" stroke-linejoin="round"/>
</g>
<defs>
<clipPath id="clip0_1545_14790">
<rect width="32.3895" height="32.3895" fill="white"/>
</clipPath>
</defs>
</svg>
